<svg class="railroad-diagram" width="4196" style="max-height: 652px;" viewBox="0 0 4196 652"><g transform="translate(.5 .5)"><g><path d="M20 187v20m0 -10h20"></path></g><g><path d="M40 197h0"></path><path d="M4156 197h0"></path><path d="M40 197a10 10 0 0 0 10 -10v-157a10 10 0 0 1 10 -10"></path><g><path d="M60 20h4076"></path></g><path d="M4136 20a10 10 0 0 1 10 10v157a10 10 0 0 0 10 10"></path><path d="M40 197h20"></path><g><path d="M60 197h0"></path><path d="M4136 197h0"></path><path d="M60 197h10"></path><g><path d="M70 197h0"></path><path d="M4126 197h0"></path><rect x="70" y="50" width="4056" height="574" rx="10" ry="10" class="group-box"></rect><g><path d="M70 197h10"></path><path d="M4116 197h10"></path><g><path d="M80 197h0"></path><path d="M714.5 197h0"></path><rect x="80" y="80" width="634.5" height="536" rx="10" ry="10" class="group-box"></rect><g><path d="M80 197h10"></path><path d="M704.5 197h10"></path><rect x="90" y="110" width="614.5" height="498" rx="10" ry="10" class="group-box"></rect><g><path d="M90 197h10"></path><path d="M694.5 197h10"></path><g class="terminal"><path d="M100 197h0"></path><path d="M128.5 197h0"></path><rect x="100" y="186" width="28.5" height="22" rx="10" ry="10"></rect><text x="114.25" y="201">"</text></g><path d="M128.5 197h10"></path><path d="M138.5 197h10"></path><g><path d="M148.5 197h0"></path><path d="M646 197h0"></path><rect x="148.5" y="140" width="497.5" height="460" rx="10" ry="10" class="group-box"></rect><g><path d="M148.5 197h0"></path><path d="M646 197h0"></path><path d="M148.5 197a10 10 0 0 0 10 -10v-29a10 10 0 0 1 10 -10"></path><g><path d="M168.5 148h457.5"></path></g><path d="M626 148a10 10 0 0 1 10 10v29a10 10 0 0 0 10 10"></path><path d="M148.5 197h20"></path><g><path d="M168.5 197h0"></path><path d="M626 197h0"></path><path d="M168.5 197h10"></path><g><path d="M178.5 197h0"></path><path d="M616 197h0"></path><rect x="178.5" y="178" width="437.5" height="406" rx="10" ry="10" class="group-box"></rect><g><path d="M178.5 197h0"></path><path d="M616 197h0"></path><path d="M178.5 197h20"></path><g class="non-terminal"><path d="M198.5 197h163.25"></path><path d="M432.75 197h163.25"></path><rect x="361.75" y="186" width="71" height="22"></rect><a xlink:href="#letter"><text x="397.25" y="201">letter</text></a></g><path d="M596 197h20"></path><path d="M178.5 197a10 10 0 0 1 10 10v10a10 10 0 0 0 10 10"></path><g class="non-terminal"><path d="M198.5 227h167.5"></path><path d="M428.5 227h167.5"></path><rect x="366" y="216" width="62.5" height="22"></rect><a xlink:href="#digit"><text x="397.25" y="231">digit</text></a></g><path d="M596 227a10 10 0 0 0 10 -10v-10a10 10 0 0 1 10 -10"></path><path d="M178.5 197a10 10 0 0 1 10 10v40a10 10 0 0 0 10 10"></path><g class="non-terminal"><path d="M198.5 257h116.5"></path><path d="M479.5 257h116.5"></path><rect x="315" y="246" width="164.5" height="22"></rect><a xlink:href="#special_character"><text x="397.25" y="261">special_character</text></a></g><path d="M596 257a10 10 0 0 0 10 -10v-40a10 10 0 0 1 10 -10"></path><path d="M178.5 197a10 10 0 0 1 10 10v100a10 10 0 0 0 10 10"></path><g><path d="M198.5 317h0"></path><path d="M596 317h0"></path><rect x="198.5" y="298" width="397.5" height="278" rx="10" ry="10" class="group-box"></rect><g><path d="M198.5 317h10"></path><path d="M586 317h10"></path><g class="terminal"><path d="M208.5 317h0"></path><path d="M245.5 317h0"></path><rect x="208.5" y="306" width="37" height="22" rx="10" ry="10"></rect><text x="227" y="321">\\</text></g><path d="M245.5 317h10"></path><g><path d="M255.5 317h0"></path><path d="M586 317h0"></path><path d="M255.5 317h20"></path><g class="terminal"><path d="M275.5 317h131"></path><path d="M435 317h131"></path><rect x="406.5" y="306" width="28.5" height="22" rx="10" ry="10"></rect><text x="420.75" y="321">"</text></g><path d="M566 317h20"></path><path d="M255.5 317a10 10 0 0 1 10 10v10a10 10 0 0 0 10 10"></path><g class="terminal"><path d="M275.5 347h126.75"></path><path d="M439.25 347h126.75"></path><rect x="402.25" y="336" width="37" height="22" rx="10" ry="10"></rect><text x="420.75" y="351">\\</text></g><path d="M566 347a10 10 0 0 0 10 -10v-10a10 10 0 0 1 10 -10"></path><path d="M255.5 317a10 10 0 0 1 10 10v40a10 10 0 0 0 10 10"></path><g class="terminal"><path d="M275.5 377h131"></path><path d="M435 377h131"></path><rect x="406.5" y="366" width="28.5" height="22" rx="10" ry="10"></rect><text x="420.75" y="381">/</text></g><path d="M566 377a10 10 0 0 0 10 -10v-40a10 10 0 0 1 10 -10"></path><path d="M255.5 317a10 10 0 0 1 10 10v70a10 10 0 0 0 10 10"></path><g class="terminal"><path d="M275.5 407h131"></path><path d="M435 407h131"></path><rect x="406.5" y="396" width="28.5" height="22" rx="10" ry="10"></rect><text x="420.75" y="411">b</text></g><path d="M566 407a10 10 0 0 0 10 -10v-70a10 10 0 0 1 10 -10"></path><path d="M255.5 317a10 10 0 0 1 10 10v100a10 10 0 0 0 10 10"></path><g class="terminal"><path d="M275.5 437h131"></path><path d="M435 437h131"></path><rect x="406.5" y="426" width="28.5" height="22" rx="10" ry="10"></rect><text x="420.75" y="441">f</text></g><path d="M566 437a10 10 0 0 0 10 -10v-100a10 10 0 0 1 10 -10"></path><path d="M255.5 317a10 10 0 0 1 10 10v130a10 10 0 0 0 10 10"></path><g class="terminal"><path d="M275.5 467h131"></path><path d="M435 467h131"></path><rect x="406.5" y="456" width="28.5" height="22" rx="10" ry="10"></rect><text x="420.75" y="471">n</text></g><path d="M566 467a10 10 0 0 0 10 -10v-130a10 10 0 0 1 10 -10"></path><path d="M255.5 317a10 10 0 0 1 10 10v160a10 10 0 0 0 10 10"></path><g class="terminal"><path d="M275.5 497h131"></path><path d="M435 497h131"></path><rect x="406.5" y="486" width="28.5" height="22" rx="10" ry="10"></rect><text x="420.75" y="501">r</text></g><path d="M566 497a10 10 0 0 0 10 -10v-160a10 10 0 0 1 10 -10"></path><path d="M255.5 317a10 10 0 0 1 10 10v190a10 10 0 0 0 10 10"></path><g class="terminal"><path d="M275.5 527h131"></path><path d="M435 527h131"></path><rect x="406.5" y="516" width="28.5" height="22" rx="10" ry="10"></rect><text x="420.75" y="531">t</text></g><path d="M566 527a10 10 0 0 0 10 -10v-190a10 10 0 0 1 10 -10"></path><path d="M255.5 317a10 10 0 0 1 10 10v220a10 10 0 0 0 10 10"></path><g><path d="M275.5 557h0"></path><path d="M566 557h0"></path><g class="terminal"><path d="M275.5 557h0"></path><path d="M304 557h0"></path><rect x="275.5" y="546" width="28.5" height="22" rx="10" ry="10"></rect><text x="289.75" y="561">u</text></g><path d="M304 557h10"></path><path d="M314 557h10"></path><g class="non-terminal"><path d="M324 557h0"></path><path d="M369.5 557h0"></path><rect x="324" y="546" width="45.5" height="22"></rect><a xlink:href="#hex"><text x="346.75" y="561">hex</text></a></g><path d="M369.5 557h10"></path><path d="M379.5 557h10"></path><g class="non-terminal"><path d="M389.5 557h0"></path><path d="M435 557h0"></path><rect x="389.5" y="546" width="45.5" height="22"></rect><a xlink:href="#hex"><text x="412.25" y="561">hex</text></a></g><path d="M435 557h10"></path><path d="M445 557h10"></path><g class="non-terminal"><path d="M455 557h0"></path><path d="M500.5 557h0"></path><rect x="455" y="546" width="45.5" height="22"></rect><a xlink:href="#hex"><text x="477.75" y="561">hex</text></a></g><path d="M500.5 557h10"></path><path d="M510.5 557h10"></path><g class="non-terminal"><path d="M520.5 557h0"></path><path d="M566 557h0"></path><rect x="520.5" y="546" width="45.5" height="22"></rect><a xlink:href="#hex"><text x="543.25" y="561">hex</text></a></g></g><path d="M566 557a10 10 0 0 0 10 -10v-220a10 10 0 0 1 10 -10"></path></g></g><g><path d="M198.5 287h0"></path><path d="M313.5 287h0"></path><a xlink:href="#escape_sequence"><text x="256" y="292" class="comment">escape_sequence</text></a></g></g><path d="M596 317a10 10 0 0 0 10 -10v-100a10 10 0 0 1 10 -10"></path></g><g><path d="M178.5 167h0"></path><path d="M251.5 167h0"></path><a xlink:href="#character"><text x="215" y="172" class="comment">character</text></a></g></g><path d="M616 197h10"></path><path d="M178.5 197a10 10 0 0 0 -10 10v375a10 10 0 0 0 10 10"></path><g><path d="M178.5 592h437.5"></path></g><path d="M616 592a10 10 0 0 0 10 -10v-375a10 10 0 0 0 -10 -10"></path></g><path d="M626 197h20"></path></g><g><path d="M148.5 129h0"></path><path d="M228.5 129h0"></path><a xlink:href="#characters"><text x="188.5" y="134" class="comment">characters</text></a></g></g><path d="M646 197h10"></path><path d="M656 197h10"></path><g class="terminal"><path d="M666 197h0"></path><path d="M694.5 197h0"></path><rect x="666" y="186" width="28.5" height="22" rx="10" ry="10"></rect><text x="680.25" y="201">"</text></g></g><g><path d="M90 99h0"></path><path d="M142 99h0"></path><a xlink:href="#string"><text x="116" y="104" class="comment">string</text></a></g></g><g><path d="M80 69h0"></path><path d="M153 69h0"></path><a xlink:href="#rule_name"><text x="116.5" y="74" class="comment">rule_name</text></a></g></g><path d="M714.5 197h10"></path><path d="M724.5 197h10"></path><g class="terminal"><path d="M734.5 197h0"></path><path d="M822.5 197h0"></path><rect x="734.5" y="186" width="88" height="22" rx="10" ry="10"></rect><text x="778.5" y="201">priority</text></g><path d="M822.5 197h10"></path><path d="M832.5 197h10"></path><g><path d="M842.5 197h0"></path><path d="M925 197h0"></path><rect x="842.5" y="178" width="82.5" height="38" rx="10" ry="10" class="group-box"></rect><g class="non-terminal"><path d="M842.5 197h10"></path><path d="M915 197h10"></path><rect x="852.5" y="186" width="62.5" height="22"></rect><a xlink:href="#digit"><text x="883.75" y="201">digit</text></a></g><g><path d="M842.5 167h0"></path><path d="M908.5 167h0"></path><a xlink:href="#priority"><text x="875.5" y="172" class="comment">priority</text></a></g></g><path d="M925 197h10"></path><path d="M935 197h10"></path><g class="terminal"><path d="M945 197h0"></path><path d="M999 197h0"></path><rect x="945" y="186" width="54" height="22" rx="10" ry="10"></rect><text x="972" y="201">when</text></g><path d="M999 197h10"></path><path d="M1009 197h10"></path><g class="terminal"><path d="M1019 197h0"></path><path d="M1047.5 197h0"></path><rect x="1019" y="186" width="28.5" height="22" rx="10" ry="10"></rect><text x="1033.25" y="201">(</text></g><path d="M1047.5 197h10"></path><path d="M1057.5 197h10"></path><g><path d="M1067.5 197h0"></path><path d="M2058.5 197h0"></path><rect x="1067.5" y="88" width="991" height="250" rx="10" ry="10" class="group-box"></rect><g><path d="M1067.5 197h0"></path><path d="M2058.5 197h0"></path><path d="M1067.5 197h20"></path><g><path d="M1087.5 197h0"></path><path d="M2038.5 197h0"></path><g><path d="M1087.5 197h0"></path><path d="M1707.5 197h0"></path><rect x="1087.5" y="118" width="620" height="182" rx="10" ry="10" class="group-box"></rect><g><path d="M1087.5 197h0"></path><path d="M1707.5 197h0"></path><path d="M1087.5 197h20"></path><g><path d="M1107.5 197h0"></path><path d="M1687.5 197h0"></path><rect x="1107.5" y="148" width="580" height="76" rx="10" ry="10" class="group-box"></rect><g><path d="M1107.5 197h10"></path><path d="M1677.5 197h10"></path><g><path d="M1117.5 197h0"></path><path d="M1365 197h0"></path><rect x="1117.5" y="178" width="247.5" height="38" rx="10" ry="10" class="group-box"></rect><g><path d="M1117.5 197h10"></path><path d="M1355 197h10"></path><g class="non-terminal"><path d="M1127.5 197h0"></path><path d="M1190 197h0"></path><rect x="1127.5" y="186" width="62.5" height="22"></rect><a xlink:href="#digit"><text x="1158.75" y="201">digit</text></a></g><path d="M1190 197h10"></path><path d="M1200 197h10"></path><g class="non-terminal"><path d="M1210 197h0"></path><path d="M1272.5 197h0"></path><rect x="1210" y="186" width="62.5" height="22"></rect><a xlink:href="#digit"><text x="1241.25" y="201">digit</text></a></g><path d="M1272.5 197h10"></path><path d="M1282.5 197h10"></path><g class="non-terminal"><path d="M1292.5 197h0"></path><path d="M1355 197h0"></path><rect x="1292.5" y="186" width="62.5" height="22"></rect><a xlink:href="#digit"><text x="1323.75" y="201">digit</text></a></g></g><g><path d="M1117.5 167h0"></path><path d="M1190.5 167h0"></path><a xlink:href="#field_tag"><text x="1154" y="172" class="comment">field_tag</text></a></g></g><path d="M1365 197h10"></path><path d="M1375 197h10"></path><g class="non-terminal"><path d="M1385 197h0"></path><path d="M1566.5 197h0"></path><rect x="1385" y="186" width="181.5" height="22"></rect><a xlink:href="#comparison_operator"><text x="1475.75" y="201">comparison_operator</text></a></g><path d="M1566.5 197h10"></path><path d="M1576.5 197h10"></path><g><path d="M1586.5 197h0"></path><path d="M1677.5 197h0"></path><rect x="1586.5" y="178" width="91" height="38" rx="10" ry="10" class="group-box"></rect><g class="non-terminal"><path d="M1586.5 197h10"></path><path d="M1667.5 197h10"></path><rect x="1596.5" y="186" width="71" height="22"></rect><a xlink:href="#string"><text x="1632" y="201">string</text></a></g><g><path d="M1586.5 167h0"></path><path d="M1631.5 167h0"></path><a xlink:href="#value"><text x="1609" y="172" class="comment">value</text></a></g></g></g><g><path d="M1107.5 137h0"></path><path d="M1222.5 137h0"></path><a xlink:href="#field_condition"><text x="1165" y="142" class="comment">field_condition</text></a></g></g><path d="M1687.5 197h20"></path><path d="M1087.5 197a10 10 0 0 1 10 10v56a10 10 0 0 0 10 10"></path><g><path d="M1107.5 273h18.75"></path><path d="M1668.75 273h18.75"></path><rect x="1126.25" y="254" width="542.5" height="38" rx="10" ry="10" class="group-box"></rect><g><path d="M1126.25 273h10"></path><path d="M1658.75 273h10"></path><g class="non-terminal"><path d="M1136.25 273h0"></path><path d="M1232.75 273h0"></path><rect x="1136.25" y="262" width="96.5" height="22"></rect><a xlink:href="#field_tag"><text x="1184.5" y="277">field_tag</text></a></g><path d="M1232.75 273h10"></path><path d="M1242.75 273h10"></path><g class="non-terminal"><path d="M1252.75 273h0"></path><path d="M1374.75 273h0"></path><rect x="1252.75" y="262" width="122" height="22"></rect><a xlink:href="#subfield_tag"><text x="1313.75" y="277">subfield_tag</text></a></g><path d="M1374.75 273h10"></path><path d="M1384.75 273h10"></path><g class="non-terminal"><path d="M1394.75 273h0"></path><path d="M1576.25 273h0"></path><rect x="1394.75" y="262" width="181.5" height="22"></rect><a xlink:href="#comparison_operator"><text x="1485.5" y="277">comparison_operator</text></a></g><path d="M1576.25 273h10"></path><path d="M1586.25 273h10"></path><g class="non-terminal"><path d="M1596.25 273h0"></path><path d="M1658.75 273h0"></path><rect x="1596.25" y="262" width="62.5" height="22"></rect><a xlink:href="#value"><text x="1627.5" y="277">value</text></a></g></g><g><path d="M1126.25 243h0"></path><path d="M1262.25 243h0"></path><a xlink:href="#subfield_condition"><text x="1194.25" y="248" class="comment">subfield_condition</text></a></g></g><path d="M1687.5 273a10 10 0 0 0 10 -10v-56a10 10 0 0 1 10 -10"></path></g><g><path d="M1087.5 107h0"></path><path d="M1160.5 107h0"></path><a xlink:href="#condition"><text x="1124" y="112" class="comment">condition</text></a></g></g><path d="M1707.5 197h10"></path><g><path d="M1717.5 197h0"></path><path d="M2038.5 197h0"></path><path d="M1717.5 197a10 10 0 0 0 10 -10v0a10 10 0 0 1 10 -10"></path><g><path d="M1737.5 177h281"></path></g><path d="M2018.5 177a10 10 0 0 1 10 10v0a10 10 0 0 0 10 10"></path><path d="M1717.5 197h20"></path><g><path d="M1737.5 197h0"></path><path d="M2018.5 197h0"></path><g class="non-terminal"><path d="M1737.5 197h0"></path><path d="M1893.5 197h0"></path><rect x="1737.5" y="186" width="156" height="22"></rect><a xlink:href="#logical_operator"><text x="1815.5" y="201">logical_operator</text></a></g><path d="M1893.5 197h10"></path><path d="M1903.5 197h10"></path><g class="non-terminal"><path d="M1913.5 197h0"></path><path d="M2018.5 197h0"></path><rect x="1913.5" y="186" width="105" height="22"></rect><a xlink:href="#conditions"><text x="1966" y="201">conditions</text></a></g></g><path d="M2018.5 197h20"></path></g></g><path d="M2038.5 197h20"></path><path d="M1067.5 197a10 10 0 0 1 10 10v102a10 10 0 0 0 10 10"></path><g class="non-terminal"><path d="M1087.5 319h435.75"></path><path d="M1602.75 319h435.75"></path><rect x="1523.25" y="308" width="79.5" height="22"></rect><a xlink:href="#boolean"><text x="1563" y="323">boolean</text></a></g><path d="M2038.5 319a10 10 0 0 0 10 -10v-102a10 10 0 0 1 10 -10"></path></g><g><path d="M1067.5 77h0"></path><path d="M1147.5 77h0"></path><a xlink:href="#conditions"><text x="1107.5" y="82" class="comment">conditions</text></a></g></g><path d="M2058.5 197h10"></path><path d="M2068.5 197h10"></path><g class="terminal"><path d="M2078.5 197h0"></path><path d="M2107 197h0"></path><rect x="2078.5" y="186" width="28.5" height="22" rx="10" ry="10"></rect><text x="2092.75" y="201">)</text></g><path d="M2107 197h10"></path><path d="M2117 197h10"></path><g class="terminal"><path d="M2127 197h0"></path><path d="M2181 197h0"></path><rect x="2127" y="186" width="54" height="22" rx="10" ry="10"></rect><text x="2154" y="201">then</text></g><path d="M2181 197h10"></path><path d="M2191 197h10"></path><g><path d="M2201 197h0"></path><path d="M4050.5 197h0"></path><rect x="2201" y="118" width="1849.5" height="470" rx="10" ry="10" class="group-box"></rect><g><path d="M2201 197h10"></path><path d="M4040.5 197h10"></path><g><path d="M2211 197h0"></path><path d="M3818 197h0"></path><rect x="2211" y="148" width="1607" height="432" rx="10" ry="10" class="group-box"></rect><g><path d="M2211 197h0"></path><path d="M3818 197h0"></path><path d="M2211 197h20"></path><g><path d="M2231 197h566.25"></path><path d="M3231.75 197h566.25"></path><rect x="2797.25" y="178" width="434.5" height="38" rx="10" ry="10" class="group-box"></rect><g><path d="M2797.25 197h10"></path><path d="M3221.75 197h10"></path><g class="non-terminal"><path d="M2807.25 197h0"></path><path d="M2903.75 197h0"></path><rect x="2807.25" y="186" width="96.5" height="22"></rect><a xlink:href="#field_tag"><text x="2855.5" y="201">field_tag</text></a></g><path d="M2903.75 197h10"></path><path d="M2913.75 197h10"></path><g class="non-terminal"><path d="M2923.75 197h0"></path><path d="M3139.25 197h0"></path><rect x="2923.75" y="186" width="215.5" height="22"></rect><a xlink:href="#transformation_operator"><text x="3031.5" y="201">transformation_operator</text></a></g><path d="M3139.25 197h10"></path><path d="M3149.25 197h10"></path><g class="non-terminal"><path d="M3159.25 197h0"></path><path d="M3221.75 197h0"></path><rect x="3159.25" y="186" width="62.5" height="22"></rect><a xlink:href="#value"><text x="3190.5" y="201">value</text></a></g></g><g><path d="M2797.25 167h0"></path><path d="M2905.25 167h0"></path><a xlink:href="#transformation"><text x="2851.25" y="172" class="comment">transformation</text></a></g></g><path d="M3798 197h20"></path><path d="M2211 197a10 10 0 0 1 10 10v48a10 10 0 0 0 10 10"></path><g><path d="M2231 265h667"></path><path d="M3131 265h667"></path><rect x="2898" y="246" width="233" height="38" rx="10" ry="10" class="group-box"></rect><g><path d="M2898 265h10"></path><path d="M3121 265h10"></path><g class="non-terminal"><path d="M2908 265h0"></path><path d="M3004.5 265h0"></path><rect x="2908" y="254" width="96.5" height="22"></rect><a xlink:href="#field_tag"><text x="2956.25" y="269">field_tag</text></a></g><path d="M3004.5 265h10"></path><path d="M3014.5 265h10"></path><g class="non-terminal"><path d="M3024.5 265h0"></path><path d="M3121 265h0"></path><rect x="3024.5" y="254" width="96.5" height="22"></rect><a xlink:href="#field_tag"><text x="3072.75" y="269">field_tag</text></a></g></g><g><path d="M2898 235h0"></path><path d="M2936 235h0"></path><a xlink:href="#move"><text x="2917" y="240" class="comment">move</text></a></g></g><path d="M3798 265a10 10 0 0 0 10 -10v-48a10 10 0 0 1 10 -10"></path><path d="M2211 197a10 10 0 0 1 10 10v116a10 10 0 0 0 10 10"></path><g><path d="M2231 333h738"></path><path d="M3060 333h738"></path><rect x="2969" y="314" width="91" height="38" rx="10" ry="10" class="group-box"></rect><g class="terminal"><path d="M2969 333h10"></path><path d="M3050 333h10"></path><rect x="2979" y="322" width="71" height="22" rx="10" ry="10"></rect><text x="3014.5" y="337">DELETE</text></g><g><path d="M2969 303h0"></path><path d="M3021 303h0"></path><a xlink:href="#delete"><text x="2995" y="308" class="comment">delete</text></a></g></g><path d="M3798 333a10 10 0 0 0 10 -10v-116a10 10 0 0 1 10 -10"></path><path d="M2211 197a10 10 0 0 1 10 10v244a10 10 0 0 0 10 10"></path><g><path d="M2231 461h0"></path><path d="M3798 461h0"></path><rect x="2231" y="382" width="1567" height="190" rx="10" ry="10" class="group-box"></rect><g><path d="M2231 461h10"></path><path d="M3788 461h10"></path><g class="terminal"><path d="M2241 461h0"></path><path d="M2354.5 461h0"></path><rect x="2241" y="450" width="113.5" height="22" rx="10" ry="10"></rect><text x="2297.75" y="465">removeField</text></g><path d="M2354.5 461h10"></path><path d="M2364.5 461h10"></path><g class="terminal"><path d="M2374.5 461h0"></path><path d="M2403 461h0"></path><rect x="2374.5" y="450" width="28.5" height="22" rx="10" ry="10"></rect><text x="2388.75" y="465">"</text></g><path d="M2403 461h10"></path><path d="M2413 461h10"></path><g class="non-terminal"><path d="M2423 461h0"></path><path d="M2519.5 461h0"></path><rect x="2423" y="450" width="96.5" height="22"></rect><a xlink:href="#field_tag"><text x="2471.25" y="465">field_tag</text></a></g><path d="M2519.5 461h10"></path><path d="M2529.5 461h10"></path><g class="terminal"><path d="M2539.5 461h0"></path><path d="M2568 461h0"></path><rect x="2539.5" y="450" width="28.5" height="22" rx="10" ry="10"></rect><text x="2553.75" y="465">"</text></g><path d="M2568 461h10"></path><path d="M2578 461h10"></path><g class="terminal"><path d="M2588 461h0"></path><path d="M2625 461h0"></path><rect x="2588" y="450" width="37" height="22" rx="10" ry="10"></rect><text x="2606.5" y="465">if</text></g><path d="M2625 461h10"></path><path d="M2635 461h10"></path><g class="terminal"><path d="M2645 461h0"></path><path d="M2673.5 461h0"></path><rect x="2645" y="450" width="28.5" height="22" rx="10" ry="10"></rect><text x="2659.25" y="465">(</text></g><path d="M2673.5 461h10"></path><path d="M2683.5 461h10"></path><g><path d="M2693.5 461h0"></path><path d="M3739.5 461h0"></path><rect x="2693.5" y="412" width="1046" height="152" rx="10" ry="10" class="group-box"></rect><g><path d="M2693.5 461h10"></path><path d="M3729.5 461h10"></path><g class="terminal"><path d="M2703.5 461h0"></path><path d="M2774.5 461h0"></path><rect x="2703.5" y="450" width="71" height="22" rx="10" ry="10"></rect><text x="2739" y="465">exists</text></g><path d="M2774.5 461h10"></path><path d="M2784.5 461h10"></path><g class="terminal"><path d="M2794.5 461h0"></path><path d="M2823 461h0"></path><rect x="2794.5" y="450" width="28.5" height="22" rx="10" ry="10"></rect><text x="2808.75" y="465">"</text></g><path d="M2823 461h10"></path><path d="M2833 461h10"></path><g class="non-terminal"><path d="M2843 461h0"></path><path d="M2939.5 461h0"></path><rect x="2843" y="450" width="96.5" height="22"></rect><a xlink:href="#field_tag"><text x="2891.25" y="465">field_tag</text></a></g><path d="M2939.5 461h10"></path><path d="M2949.5 461h10"></path><g class="terminal"><path d="M2959.5 461h0"></path><path d="M2988 461h0"></path><rect x="2959.5" y="450" width="28.5" height="22" rx="10" ry="10"></rect><text x="2973.75" y="465">.</text></g><path d="M2988 461h10"></path><path d="M2998 461h10"></path><g><path d="M3008 461h0"></path><path d="M3550 461h0"></path><rect x="3008" y="442" width="542" height="114" rx="10" ry="10" class="group-box"></rect><g><path d="M3008 461h0"></path><path d="M3550 461h0"></path><path d="M3008 461h20"></path><g class="non-terminal"><path d="M3028 461h190"></path><path d="M3340 461h190"></path><rect x="3218" y="450" width="122" height="22"></rect><a xlink:href="#subfield_tag"><text x="3279" y="465">subfield_tag</text></a></g><path d="M3530 461h20"></path><path d="M3008 461a10 10 0 0 1 10 10v48a10 10 0 0 0 10 10"></path><g><path d="M3028 529h0"></path><path d="M3530 529h0"></path><g class="terminal"><path d="M3028 529h0"></path><path d="M3056.5 529h0"></path><rect x="3028" y="518" width="28.5" height="22" rx="10" ry="10"></rect><text x="3042.25" y="533">{</text></g><path d="M3056.5 529h10"></path><path d="M3066.5 529h10"></path><g><path d="M3076.5 529h0"></path><path d="M3481.5 529h0"></path><rect x="3076.5" y="502" width="405" height="46" rx="10" ry="10" class="group-box"></rect><g><path d="M3076.5 529h10"></path><path d="M3471.5 529h10"></path><g class="non-terminal"><path d="M3086.5 529h0"></path><path d="M3208.5 529h0"></path><rect x="3086.5" y="518" width="122" height="22"></rect><a xlink:href="#subfield_tag"><text x="3147.5" y="533">subfield_tag</text></a></g><path d="M3208.5 529h10"></path><g><path d="M3218.5 529h0"></path><path d="M3471.5 529h0"></path><path d="M3218.5 529a10 10 0 0 0 10 -10v0a10 10 0 0 1 10 -10"></path><g><path d="M3238.5 509h213"></path></g><path d="M3451.5 509a10 10 0 0 1 10 10v0a10 10 0 0 0 10 10"></path><path d="M3218.5 529h20"></path><g><path d="M3238.5 529h0"></path><path d="M3451.5 529h0"></path><g class="terminal"><path d="M3238.5 529h0"></path><path d="M3267 529h0"></path><rect x="3238.5" y="518" width="28.5" height="22" rx="10" ry="10"></rect><text x="3252.75" y="533">,</text></g><path d="M3267 529h10"></path><path d="M3277 529h10"></path><g class="non-terminal"><path d="M3287 529h0"></path><path d="M3451.5 529h0"></path><rect x="3287" y="518" width="164.5" height="22"></rect><a xlink:href="#subfield_tag_list"><text x="3369.25" y="533">subfield_tag_list</text></a></g></g><path d="M3451.5 529h20"></path></g></g><g><path d="M3076.5 491h0"></path><path d="M3205.5 491h0"></path><a xlink:href="#subfield_tag_list"><text x="3141" y="496" class="comment">subfield_tag_list</text></a></g></g><path d="M3481.5 529h10"></path><path d="M3491.5 529h10"></path><g class="terminal"><path d="M3501.5 529h0"></path><path d="M3530 529h0"></path><rect x="3501.5" y="518" width="28.5" height="22" rx="10" ry="10"></rect><text x="3515.75" y="533">}</text></g></g><path d="M3530 529a10 10 0 0 0 10 -10v-48a10 10 0 0 1 10 -10"></path></g><g><path d="M3008 431h0"></path><path d="M3130 431h0"></path><a xlink:href="#subfield_pattern"><text x="3069" y="436" class="comment">subfield_pattern</text></a></g></g><path d="M3550 461h10"></path><path d="M3560 461h10"></path><g class="terminal"><path d="M3570 461h0"></path><path d="M3598.5 461h0"></path><rect x="3570" y="450" width="28.5" height="22" rx="10" ry="10"></rect><text x="3584.25" y="465">,</text></g><path d="M3598.5 461h10"></path><path d="M3608.5 461h10"></path><g class="non-terminal"><path d="M3618.5 461h0"></path><path d="M3681 461h0"></path><rect x="3618.5" y="450" width="62.5" height="22"></rect><a xlink:href="#value"><text x="3649.75" y="465">value</text></a></g><path d="M3681 461h10"></path><path d="M3691 461h10"></path><g class="terminal"><path d="M3701 461h0"></path><path d="M3729.5 461h0"></path><rect x="3701" y="450" width="28.5" height="22" rx="10" ry="10"></rect><text x="3715.25" y="465">"</text></g></g><g><path d="M2693.5 401h0"></path><path d="M2815.5 401h0"></path><a xlink:href="#exists_condition"><text x="2754.5" y="406" class="comment">exists_condition</text></a></g></g><path d="M3739.5 461h10"></path><path d="M3749.5 461h10"></path><g class="terminal"><path d="M3759.5 461h0"></path><path d="M3788 461h0"></path><rect x="3759.5" y="450" width="28.5" height="22" rx="10" ry="10"></rect><text x="3773.75" y="465">)</text></g></g><g><path d="M2231 371h0"></path><path d="M2374 371h0"></path><a xlink:href="#remove_field_action"><text x="2302.5" y="376" class="comment">remove_field_action</text></a></g></g><path d="M3798 461a10 10 0 0 0 10 -10v-244a10 10 0 0 1 10 -10"></path></g><g><path d="M2211 137h0"></path><path d="M2263 137h0"></path><a xlink:href="#action"><text x="2237" y="142" class="comment">action</text></a></g></g><path d="M3818 197h10"></path><g><path d="M3828 197h0"></path><path d="M4040.5 197h0"></path><path d="M3828 197a10 10 0 0 0 10 -10v-29a10 10 0 0 1 10 -10"></path><g><path d="M3848 148h172.5"></path></g><path d="M4020.5 148a10 10 0 0 1 10 10v29a10 10 0 0 0 10 10"></path><path d="M3828 197h20"></path><g><path d="M3848 197h0"></path><path d="M4020.5 197h0"></path><g><path d="M3848 197h0"></path><path d="M3921 197h0"></path><rect x="3848" y="178" width="73" height="38" rx="10" ry="10" class="group-box"></rect><g class="terminal"><path d="M3848 197h22.25"></path><path d="M3898.75 197h22.25"></path><rect x="3870.25" y="186" width="28.5" height="22" rx="10" ry="10"></rect><text x="3884.5" y="201">;</text></g><g><path d="M3848 167h0"></path><path d="M3921 167h0"></path><a xlink:href="#separator"><text x="3884.5" y="172" class="comment">separator</text></a></g></g><path d="M3921 197h10"></path><path d="M3931 197h10"></path><g class="non-terminal"><path d="M3941 197h0"></path><path d="M4020.5 197h0"></path><rect x="3941" y="186" width="79.5" height="22"></rect><a xlink:href="#actions"><text x="3980.75" y="201">actions</text></a></g></g><path d="M4020.5 197h20"></path></g></g><g><path d="M2201 107h0"></path><path d="M2260 107h0"></path><a xlink:href="#actions"><text x="2230.5" y="112" class="comment">actions</text></a></g></g><path d="M4050.5 197h10"></path><path d="M4060.5 197h10"></path><g class="terminal"><path d="M4070.5 197h0"></path><path d="M4116 197h0"></path><rect x="4070.5" y="186" width="45.5" height="22" rx="10" ry="10"></rect><text x="4093.25" y="201">end</text></g></g><g><path d="M70 39h0"></path><path d="M108 39h0"></path><a xlink:href="#rule"><text x="89" y="44" class="comment">rule</text></a></g></g><path d="M4126 197h10"></path><path d="M70 197a10 10 0 0 0 -10 10v415a10 10 0 0 0 10 10"></path><g><path d="M70 632h4056"></path></g><path d="M4126 632a10 10 0 0 0 10 -10v-415a10 10 0 0 0 -10 -10"></path></g><path d="M4136 197h20"></path></g><path d="M 4156 197 h 20 m 0 -10 v 20"></path></g></svg>